<?xml version="1.0" encoding="UTF-8"?>
<svg xmlns="http://www.w3.org/2000/svg" xmlns:xlink="http://www.w3.org/1999/xlink" width="200px" height="200px" viewBox="0 0 200 199" version="1.1">
<defs>
<clipPath id="clip1">
  <path d="M 0.0507812 0 L 199.863281 0 L 199.863281 198.914062 L 0.0507812 198.914062 Z M 0.0507812 0 "/>
</clipPath>
<clipPath id="clip2">
  <path d="M 37.84375 108.125 L 162.070312 108.125 L 162.070312 136.167969 L 37.84375 136.167969 Z M 37.84375 108.125 "/>
</clipPath>
<clipPath id="clip3">
  <path d="M 82 95 L 91 95 L 91 101.5 L 82 101.5 Z M 82 95 "/>
</clipPath>
<clipPath id="clip4">
  <path d="M 91 95 L 101 95 L 101 101.5 L 91 101.5 Z M 91 95 "/>
</clipPath>
<clipPath id="clip5">
  <path d="M 100 95 L 110 95 L 110 101.5 L 100 101.5 Z M 100 95 "/>
</clipPath>
<clipPath id="clip6">
  <path d="M 110 95 L 118.582031 95 L 118.582031 101.5 L 110 101.5 Z M 110 95 "/>
</clipPath>
<clipPath id="clip7">
  <path d="M 81.328125 62.742188 L 117 62.742188 L 117 88 L 81.328125 88 Z M 81.328125 62.742188 "/>
</clipPath>
</defs>
<g id="surface1">
<g clip-path="url(#clip1)" clip-rule="nonzero">
<path style="fill-rule:nonzero;fill:rgb(2.352941%,46.27451%,15.294118%);fill-opacity:1;stroke-width:1;stroke-linecap:butt;stroke-linejoin:miter;stroke:rgb(100%,100%,100%);stroke-opacity:1;stroke-miterlimit:4;" d="M 0.00137753 171.425938 C 0.00137753 76.748135 76.752507 0.000000000000003098 171.426309 0.000000000000003098 C 266.10011 0.000000000000003098 342.85124 76.748135 342.85124 171.425938 C 342.85124 266.103741 266.10011 342.851877 171.426309 342.851877 C 76.752507 342.851877 0.00137753 266.103741 0.00137753 171.425938 Z M 171.426309 338.488968 C 263.693888 338.488968 338.494569 263.693369 338.494569 171.425938 C 338.494569 79.158507 263.693888 4.362908 171.426309 4.356175 C 79.15873 4.356175 4.358048 79.158507 4.358048 171.425938 C 4.358048 263.693369 79.15873 338.488968 171.426309 338.488968 Z M 171.426309 338.488968 " transform="matrix(0.582799,0,0,0.580175,0.0499784,-0.000000000000001797)"/>
</g>
<path style=" stroke:none;fill-rule:nonzero;fill:rgb(2.352941%,46.27451%,15.294118%);fill-opacity:1;" d="M 195.867188 99.457031 C 195.867188 46.726562 152.925781 3.976562 99.957031 3.976562 C 46.988281 3.976562 4.046875 46.726562 4.046875 99.457031 C 4.046875 152.1875 46.988281 194.9375 99.957031 194.9375 C 152.925781 194.9375 195.867188 152.1875 195.867188 99.457031 Z M 195.867188 99.457031 "/>
<g clip-path="url(#clip2)" clip-rule="nonzero">
<path style=" stroke:none;fill-rule:nonzero;fill:rgb(100%,100%,100%);fill-opacity:1;" d="M 44.746094 136.171875 C 42.378906 136.171875 40.6875 135.789062 39.664062 135.03125 C 38.644531 134.273438 38.101562 133.019531 38.035156 131.269531 C 37.804688 125.183594 37.804688 119.097656 38.035156 113.007812 C 38.101562 111.414062 38.652344 110.199219 39.6875 109.375 C 40.71875 108.539062 42.394531 108.125 44.707031 108.125 C 47.097656 108.125 48.839844 108.503906 49.929688 109.261719 C 51.023438 110.019531 51.59375 111.277344 51.648438 113.023438 C 51.671875 113.453125 51.6875 113.976562 51.6875 114.597656 C 51.6875 115.226562 51.675781 115.851562 51.65625 116.472656 C 51.640625 117.097656 51.621094 117.632812 51.605469 118.070312 L 48.914062 118.070312 C 48.941406 117.230469 48.957031 116.316406 48.960938 115.324219 C 48.96875 114.335938 48.953125 113.421875 48.914062 112.582031 C 48.898438 111.8125 48.578125 111.261719 47.953125 110.921875 C 47.328125 110.589844 46.246094 110.425781 44.707031 110.425781 C 43.296875 110.425781 42.292969 110.589844 41.6875 110.921875 C 41.089844 111.261719 40.773438 111.8125 40.738281 112.582031 C 40.53125 118.953125 40.53125 125.332031 40.738281 131.710938 C 40.773438 132.472656 41.089844 133.023438 41.6875 133.363281 C 42.292969 133.703125 43.3125 133.871094 44.746094 133.871094 C 46.359375 133.871094 47.492188 133.703125 48.144531 133.363281 C 48.800781 133.023438 49.148438 132.472656 49.183594 131.710938 C 49.222656 130.8125 49.226562 129.839844 49.191406 128.804688 C 49.160156 127.769531 49.125 126.804688 49.089844 125.902344 L 51.84375 125.902344 C 51.910156 126.804688 51.945312 127.695312 51.957031 128.574219 C 51.972656 129.453125 51.945312 130.351562 51.875 131.269531 C 51.804688 133.019531 51.210938 134.273438 50.105469 135.03125 C 49 135.789062 47.214844 136.171875 44.746094 136.171875 Z M 57.984375 110.867188 L 57.984375 135.917969 L 55.464844 135.917969 L 55.464844 110.867188 Z M 66.457031 136.128906 C 64.878906 136.128906 63.710938 135.824219 62.953125 135.207031 C 62.195312 134.585938 61.753906 133.617188 61.628906 132.304688 C 61.617188 132.050781 61.601562 131.796875 61.582031 131.539062 C 61.558594 131.28125 61.5625 131.03125 61.589844 130.789062 C 61.679688 129.636719 62.039062 128.675781 62.675781 127.902344 C 63.304688 127.121094 64.507812 126.410156 66.28125 125.769531 C 67.007812 125.507812 67.769531 125.277344 68.566406 125.070312 C 69.367188 124.867188 70.160156 124.667969 70.949219 124.472656 L 70.949219 120.90625 C 70.949219 120.273438 70.710938 119.808594 70.234375 119.507812 C 69.757812 119.203125 68.925781 119.046875 67.734375 119.046875 C 66.703125 119.046875 65.914062 119.179688 65.375 119.4375 C 64.839844 119.695312 64.546875 120.164062 64.496094 120.84375 C 64.46875 121.164062 64.453125 121.625 64.453125 122.226562 C 64.453125 122.820312 64.46875 123.324219 64.496094 123.734375 L 62.074219 123.734375 C 62.046875 123.414062 62.019531 123 61.992188 122.488281 C 61.964844 121.972656 61.972656 121.511719 62.015625 121.113281 C 62.082031 119.621094 62.566406 118.546875 63.476562 117.886719 C 64.386719 117.222656 65.839844 116.890625 67.828125 116.890625 C 69.910156 116.890625 71.355469 117.25 72.164062 117.964844 C 72.96875 118.6875 73.378906 119.875 73.394531 121.523438 L 73.394531 135.917969 L 70.949219 135.917969 L 70.949219 134.140625 L 70.410156 134.140625 C 70.085938 134.78125 69.625 135.273438 69.019531 135.617188 C 68.421875 135.960938 67.566406 136.128906 66.457031 136.128906 Z M 67.074219 134.042969 C 68.9375 134.042969 70.226562 133.492188 70.933594 132.382812 L 70.933594 126.535156 C 70.316406 126.667969 69.675781 126.820312 69.019531 126.992188 C 68.371094 127.167969 67.605469 127.402344 66.726562 127.695312 C 65.675781 128.082031 64.980469 128.523438 64.628906 129.023438 C 64.28125 129.53125 64.082031 130.117188 64.035156 130.789062 C 64.042969 130.976562 64.050781 131.183594 64.058594 131.410156 C 64.066406 131.636719 64.085938 131.871094 64.105469 132.113281 C 64.199219 132.730469 64.511719 133.207031 65.042969 133.546875 C 65.570312 133.878906 66.25 134.042969 67.074219 134.042969 Z M 82.152344 136.148438 C 80.074219 136.148438 78.632812 135.8125 77.828125 135.144531 C 77.015625 134.472656 76.578125 133.378906 76.515625 131.863281 C 76.488281 131.46875 76.472656 131.023438 76.46875 130.527344 C 76.457031 130.03125 76.480469 129.597656 76.53125 129.222656 L 78.804688 129.222656 C 78.777344 129.8125 78.765625 130.355469 78.769531 130.851562 C 78.777344 131.347656 78.789062 131.765625 78.804688 132.113281 C 78.8125 132.820312 79.0625 133.3125 79.550781 133.585938 C 80.03125 133.855469 80.898438 133.988281 82.152344 133.988281 C 83.433594 133.988281 84.335938 133.855469 84.863281 133.585938 C 85.386719 133.3125 85.667969 132.820312 85.703125 132.113281 C 85.742188 131.679688 85.765625 131.355469 85.78125 131.144531 C 85.792969 130.925781 85.792969 130.621094 85.78125 130.226562 C 85.742188 129.566406 85.566406 129.058594 85.257812 128.699219 C 84.945312 128.34375 84.273438 128.082031 83.242188 127.925781 L 80.972656 127.402344 C 79.8125 127.160156 78.914062 126.851562 78.277344 126.480469 C 77.644531 126.105469 77.195312 125.621094 76.9375 125.023438 C 76.683594 124.425781 76.53125 123.667969 76.476562 122.757812 C 76.441406 122.292969 76.472656 121.785156 76.570312 121.230469 C 76.597656 119.675781 77.023438 118.5625 77.84375 117.894531 C 78.664062 117.226562 80.160156 116.890625 82.328125 116.890625 C 84.410156 116.890625 85.855469 117.21875 86.664062 117.871094 C 87.46875 118.53125 87.910156 119.609375 87.992188 121.113281 C 87.992188 121.5 87.988281 121.945312 87.984375 122.441406 C 87.976562 122.933594 87.953125 123.367188 87.910156 123.734375 L 85.570312 123.734375 C 85.632812 123.289062 85.660156 122.773438 85.65625 122.195312 C 85.652344 121.613281 85.632812 121.164062 85.609375 120.84375 C 85.59375 120.164062 85.355469 119.695312 84.902344 119.4375 C 84.441406 119.179688 83.582031 119.046875 82.328125 119.046875 C 81.0625 119.046875 80.199219 119.179688 79.738281 119.4375 C 79.285156 119.695312 79.03125 120.164062 78.976562 120.84375 C 78.960938 121.164062 78.941406 121.433594 78.914062 121.648438 C 78.894531 121.859375 78.886719 122.152344 78.898438 122.527344 C 78.933594 122.976562 79.003906 123.371094 79.105469 123.71875 C 79.199219 124.066406 79.417969 124.355469 79.765625 124.582031 C 80.101562 124.804688 80.660156 124.972656 81.4375 125.085938 L 83.605469 125.539062 C 85.183594 125.859375 86.335938 126.359375 87.0625 127.03125 C 87.785156 127.707031 88.148438 128.726562 88.148438 130.089844 C 88.148438 130.371094 88.144531 130.671875 88.132812 130.992188 C 88.128906 131.3125 88.113281 131.625 88.085938 131.925781 C 87.996094 133.425781 87.523438 134.507812 86.664062 135.167969 C 85.800781 135.820312 84.296875 136.148438 82.152344 136.148438 Z M 96.398438 136.148438 C 94.320312 136.148438 92.875 135.8125 92.070312 135.144531 C 91.261719 134.472656 90.824219 133.378906 90.761719 131.863281 C 90.734375 131.46875 90.71875 131.023438 90.714844 130.527344 C 90.707031 130.03125 90.730469 129.597656 90.777344 129.222656 L 93.046875 129.222656 C 93.023438 129.8125 93.011719 130.355469 93.015625 130.851562 C 93.027344 131.347656 93.039062 131.765625 93.046875 132.113281 C 93.058594 132.820312 93.308594 133.3125 93.792969 133.585938 C 94.28125 133.855469 95.148438 133.988281 96.398438 133.988281 C 97.679688 133.988281 98.582031 133.855469 99.105469 133.585938 C 99.632812 133.3125 99.910156 132.820312 99.949219 132.113281 C 99.984375 131.679688 100.011719 131.355469 100.027344 131.144531 C 100.039062 130.925781 100.039062 130.621094 100.027344 130.226562 C 99.992188 129.566406 99.816406 129.058594 99.503906 128.699219 C 99.191406 128.34375 98.519531 128.082031 97.488281 127.925781 L 95.214844 127.402344 C 94.058594 127.160156 93.160156 126.851562 92.523438 126.480469 C 91.890625 126.105469 91.445312 125.621094 91.191406 125.023438 C 90.929688 124.425781 90.773438 123.667969 90.722656 122.757812 C 90.683594 122.292969 90.714844 121.785156 90.816406 121.230469 C 90.84375 119.675781 91.265625 118.5625 92.085938 117.894531 C 92.90625 117.226562 94.402344 116.890625 96.574219 116.890625 C 98.65625 116.890625 100.101562 117.21875 100.910156 117.871094 C 101.71875 118.53125 102.160156 119.609375 102.234375 121.113281 C 102.234375 121.5 102.234375 121.945312 102.226562 122.441406 C 102.222656 122.933594 102.199219 123.367188 102.15625 123.734375 L 99.8125 123.734375 C 99.878906 123.289062 99.90625 122.773438 99.902344 122.195312 C 99.894531 121.613281 99.878906 121.164062 99.851562 120.84375 C 99.835938 120.164062 99.601562 119.695312 99.148438 119.4375 C 98.6875 119.179688 97.828125 119.046875 96.574219 119.046875 C 95.308594 119.046875 94.445312 119.179688 93.984375 119.4375 C 93.53125 119.695312 93.277344 120.164062 93.222656 120.84375 C 93.210938 121.164062 93.195312 121.433594 93.167969 121.648438 C 93.140625 121.859375 93.132812 122.152344 93.144531 122.527344 C 93.1875 122.976562 93.253906 123.371094 93.351562 123.71875 C 93.445312 124.066406 93.664062 124.355469 94.007812 124.582031 C 94.351562 124.804688 94.910156 124.972656 95.683594 125.085938 L 97.851562 125.539062 C 99.429688 125.859375 100.582031 126.359375 101.304688 127.03125 C 102.03125 127.707031 102.394531 128.726562 102.394531 130.089844 C 102.394531 130.371094 102.390625 130.671875 102.386719 130.992188 C 102.375 131.3125 102.355469 131.625 102.332031 131.925781 C 102.242188 133.425781 101.765625 134.507812 100.910156 135.167969 C 100.050781 135.820312 98.546875 136.148438 96.398438 136.148438 Z M 108.113281 125.476562 L 108.113281 135.917969 L 105.410156 135.917969 L 105.410156 108.363281 L 111.945312 108.363281 C 114.285156 108.363281 115.992188 108.734375 117.070312 109.476562 C 118.136719 110.222656 118.730469 111.460938 118.847656 113.183594 C 118.980469 114.621094 119.046875 115.921875 119.046875 117.082031 C 119.046875 118.238281 118.980469 119.429688 118.847656 120.652344 C 118.730469 122.367188 118.132812 123.597656 117.050781 124.34375 C 115.976562 125.097656 114.25 125.476562 111.867188 125.476562 Z M 111.945312 110.828125 L 108.113281 110.828125 L 108.113281 123.007812 L 111.867188 123.007812 C 113.371094 123.007812 114.449219 122.824219 115.097656 122.457031 C 115.75 122.09375 116.109375 121.527344 116.171875 120.765625 C 116.367188 118.207031 116.367188 115.636719 116.171875 113.050781 C 116.109375 112.289062 115.753906 111.730469 115.105469 111.375 C 114.460938 111.007812 113.40625 110.828125 111.945312 110.828125 Z M 126.121094 136.128906 C 124.542969 136.128906 123.375 135.824219 122.617188 135.207031 C 121.863281 134.585938 121.421875 133.617188 121.292969 132.304688 C 121.277344 132.050781 121.261719 131.796875 121.246094 131.539062 C 121.222656 131.28125 121.226562 131.03125 121.253906 130.789062 C 121.34375 129.636719 121.703125 128.675781 122.332031 127.902344 C 122.96875 127.121094 124.171875 126.410156 125.945312 125.769531 C 126.664062 125.507812 127.429688 125.277344 128.234375 125.070312 C 129.03125 124.867188 129.828125 124.667969 130.613281 124.472656 L 130.613281 120.90625 C 130.613281 120.273438 130.375 119.808594 129.902344 119.507812 C 129.417969 119.203125 128.585938 119.046875 127.398438 119.046875 C 126.363281 119.046875 125.574219 119.179688 125.039062 119.4375 C 124.507812 119.695312 124.210938 120.164062 124.160156 120.84375 C 124.132812 121.164062 124.121094 121.625 124.121094 122.226562 C 124.121094 122.820312 124.132812 123.324219 124.160156 123.734375 L 121.738281 123.734375 C 121.710938 123.414062 121.683594 123 121.65625 122.488281 C 121.632812 121.972656 121.636719 121.511719 121.675781 121.113281 C 121.742188 119.621094 122.234375 118.546875 123.144531 117.886719 C 124.054688 117.222656 125.503906 116.890625 127.496094 116.890625 C 129.574219 116.890625 131.019531 117.25 131.828125 117.964844 C 132.632812 118.6875 133.042969 119.875 133.0625 121.523438 L 133.0625 135.917969 L 130.613281 135.917969 L 130.613281 134.140625 L 130.074219 134.140625 C 129.753906 134.78125 129.289062 135.273438 128.683594 135.617188 C 128.082031 135.960938 127.226562 136.128906 126.121094 136.128906 Z M 126.738281 134.042969 C 128.597656 134.042969 129.882812 133.492188 130.597656 132.382812 L 130.597656 126.535156 C 129.972656 126.667969 129.335938 126.820312 128.683594 126.992188 C 128.035156 127.167969 127.269531 127.402344 126.390625 127.695312 C 125.34375 128.082031 124.644531 128.523438 124.292969 129.023438 C 123.945312 129.53125 123.742188 130.117188 123.691406 130.789062 C 123.707031 130.976562 123.71875 131.183594 123.722656 131.410156 C 123.726562 131.636719 123.742188 131.871094 123.769531 132.113281 C 123.859375 132.730469 124.171875 133.207031 124.699219 133.546875 C 125.230469 133.878906 125.910156 134.042969 126.738281 134.042969 Z M 141.820312 136.148438 C 139.738281 136.148438 138.292969 135.8125 137.484375 135.144531 C 136.679688 134.472656 136.242188 133.378906 136.171875 131.863281 C 136.148438 131.46875 136.132812 131.023438 136.125 130.527344 C 136.121094 130.03125 136.144531 129.597656 136.195312 129.222656 L 138.460938 129.222656 C 138.4375 129.8125 138.429688 130.355469 138.4375 130.851562 C 138.441406 131.347656 138.449219 131.765625 138.460938 132.113281 C 138.476562 132.820312 138.726562 133.3125 139.207031 133.585938 C 139.695312 133.855469 140.566406 133.988281 141.820312 133.988281 C 143.101562 133.988281 144 133.855469 144.519531 133.585938 C 145.042969 133.3125 145.324219 132.820312 145.367188 132.113281 C 145.40625 131.679688 145.429688 131.355469 145.441406 131.144531 C 145.457031 130.925781 145.457031 130.621094 145.441406 130.226562 C 145.402344 129.566406 145.226562 129.058594 144.914062 128.699219 C 144.609375 128.34375 143.9375 128.082031 142.90625 127.925781 L 140.636719 127.402344 C 139.472656 127.160156 138.574219 126.851562 137.945312 126.480469 C 137.308594 126.105469 136.863281 125.621094 136.601562 125.023438 C 136.34375 124.425781 136.1875 123.667969 136.132812 122.757812 C 136.097656 122.292969 136.132812 121.785156 136.238281 121.230469 C 136.261719 119.675781 136.6875 118.5625 137.507812 117.894531 C 138.328125 117.226562 139.824219 116.890625 141.992188 116.890625 C 144.074219 116.890625 145.515625 117.21875 146.320312 117.871094 C 147.132812 118.53125 147.574219 119.609375 147.65625 121.113281 C 147.65625 121.5 147.648438 121.945312 147.640625 122.441406 C 147.632812 122.933594 147.613281 123.367188 147.574219 123.734375 L 145.234375 123.734375 C 145.296875 123.289062 145.324219 122.773438 145.3125 122.195312 C 145.308594 121.613281 145.292969 121.164062 145.265625 120.84375 C 145.253906 120.164062 145.019531 119.695312 144.558594 119.4375 C 144.101562 119.179688 143.25 119.046875 141.992188 119.046875 C 140.730469 119.046875 139.867188 119.179688 139.40625 119.4375 C 138.945312 119.695312 138.6875 120.164062 138.636719 120.84375 C 138.625 121.164062 138.605469 121.433594 138.578125 121.648438 C 138.554688 121.859375 138.546875 122.152344 138.5625 122.527344 C 138.601562 122.976562 138.667969 123.371094 138.761719 123.71875 C 138.863281 124.066406 139.082031 124.355469 139.421875 124.582031 C 139.765625 124.804688 140.324219 124.972656 141.097656 125.085938 L 143.273438 125.539062 C 144.851562 125.859375 146 126.359375 146.726562 127.03125 C 147.445312 127.707031 147.804688 128.726562 147.804688 130.089844 C 147.804688 130.371094 147.804688 130.671875 147.796875 130.992188 C 147.792969 131.3125 147.777344 131.625 147.75 131.925781 C 147.660156 133.425781 147.183594 134.507812 146.320312 135.167969 C 145.464844 135.820312 143.964844 136.148438 141.820312 136.148438 Z M 156.0625 136.148438 C 153.984375 136.148438 152.539062 135.8125 151.730469 135.144531 C 150.925781 134.472656 150.488281 133.378906 150.425781 131.863281 C 150.398438 131.46875 150.382812 131.023438 150.371094 130.527344 C 150.367188 130.03125 150.390625 129.597656 150.441406 129.222656 L 152.714844 129.222656 C 152.6875 129.8125 152.675781 130.355469 152.683594 130.851562 C 152.6875 131.347656 152.699219 131.765625 152.714844 132.113281 C 152.722656 132.820312 152.972656 133.3125 153.460938 133.585938 C 153.941406 133.855469 154.808594 133.988281 156.0625 133.988281 C 157.34375 133.988281 158.246094 133.855469 158.773438 133.585938 C 159.289062 133.3125 159.570312 132.820312 159.613281 132.113281 C 159.652344 131.679688 159.675781 131.355469 159.691406 131.144531 C 159.703125 130.925781 159.703125 130.621094 159.691406 130.226562 C 159.652344 129.566406 159.476562 129.058594 159.167969 128.699219 C 158.855469 128.34375 158.183594 128.082031 157.152344 127.925781 L 154.882812 127.402344 C 153.714844 127.160156 152.820312 126.851562 152.1875 126.480469 C 151.554688 126.105469 151.105469 125.621094 150.847656 125.023438 C 150.589844 124.425781 150.433594 123.667969 150.386719 122.757812 C 150.34375 122.292969 150.375 121.785156 150.480469 121.230469 C 150.507812 119.675781 150.933594 118.5625 151.753906 117.894531 C 152.574219 117.226562 154.070312 116.890625 156.238281 116.890625 C 158.320312 116.890625 159.765625 117.21875 160.574219 117.871094 C 161.378906 118.53125 161.820312 119.609375 161.902344 121.113281 C 161.902344 121.5 161.898438 121.945312 161.894531 122.441406 C 161.882812 122.933594 161.859375 123.367188 161.820312 123.734375 L 159.480469 123.734375 C 159.542969 123.289062 159.570312 122.773438 159.566406 122.195312 C 159.554688 121.613281 159.539062 121.164062 159.519531 120.84375 C 159.503906 120.164062 159.265625 119.695312 158.804688 119.4375 C 158.347656 119.179688 157.492188 119.046875 156.238281 119.046875 C 154.972656 119.046875 154.109375 119.179688 153.652344 119.4375 C 153.191406 119.695312 152.9375 120.164062 152.886719 120.84375 C 152.871094 121.164062 152.851562 121.433594 152.824219 121.648438 C 152.796875 121.859375 152.792969 122.152344 152.808594 122.527344 C 152.847656 122.976562 152.910156 123.371094 153.007812 123.71875 C 153.109375 124.066406 153.328125 124.355469 153.667969 124.582031 C 154.011719 124.804688 154.570312 124.972656 155.351562 125.085938 L 157.515625 125.539062 C 159.09375 125.859375 160.246094 126.359375 160.972656 127.03125 C 161.691406 127.707031 162.050781 128.726562 162.050781 130.089844 C 162.050781 130.371094 162.050781 130.671875 162.042969 130.992188 C 162.039062 131.3125 162.023438 131.625 161.996094 131.925781 C 161.90625 133.425781 161.433594 134.507812 160.574219 135.167969 C 159.710938 135.820312 158.207031 136.148438 156.0625 136.148438 Z M 156.0625 136.148438 "/>
</g>
<path style=" stroke:none;fill-rule:nonzero;fill:rgb(100%,100%,100%);fill-opacity:1;" d="M 86.695312 87.84375 C 84.761719 87.84375 83.195312 89.402344 83.195312 91.328125 C 83.195312 93.253906 84.761719 94.8125 86.695312 94.8125 C 88.632812 94.8125 90.199219 93.253906 90.199219 91.328125 C 90.195312 89.402344 88.628906 87.84375 86.695312 87.84375 M 86.695312 93.707031 C 85.378906 93.707031 84.3125 92.644531 84.3125 91.332031 C 84.3125 90.023438 85.378906 88.960938 86.695312 88.960938 C 88.015625 88.960938 89.082031 90.023438 89.082031 91.332031 C 89.078125 92.644531 88.011719 93.703125 86.695312 93.707031 "/>
<g clip-path="url(#clip3)" clip-rule="nonzero">
<path style=" stroke:none;fill-rule:nonzero;fill:rgb(100%,100%,100%);fill-opacity:1;" d="M 86.703125 95.046875 C 84.355469 95.050781 82.457031 96.945312 82.453125 99.277344 L 82.453125 100.945312 C 82.453125 101.253906 82.703125 101.503906 83.011719 101.503906 C 83.320312 101.503906 83.570312 101.253906 83.570312 100.945312 L 83.570312 99.277344 C 83.570312 97.554688 84.972656 96.15625 86.707031 96.15625 C 88.4375 96.15625 89.839844 97.554688 89.839844 99.277344 L 89.839844 100.945312 C 89.839844 101.253906 90.09375 101.503906 90.398438 101.503906 C 90.707031 101.503906 90.957031 101.253906 90.957031 100.945312 L 90.957031 99.277344 C 90.957031 96.941406 89.050781 95.046875 86.703125 95.046875 "/>
</g>
<path style=" stroke:none;fill-rule:nonzero;fill:rgb(100%,100%,100%);fill-opacity:1;" d="M 92.398438 91.328125 C 92.398438 93.253906 93.96875 94.8125 95.902344 94.8125 C 97.835938 94.8125 99.402344 93.253906 99.402344 91.328125 C 99.402344 89.402344 97.835938 87.84375 95.902344 87.84375 C 93.96875 87.84375 92.402344 89.402344 92.398438 91.328125 M 98.292969 91.328125 C 98.292969 92.640625 97.222656 93.703125 95.90625 93.703125 C 94.589844 93.703125 93.523438 92.640625 93.523438 91.328125 C 93.523438 90.015625 94.589844 88.953125 95.90625 88.953125 C 97.21875 88.964844 98.277344 90.023438 98.28125 91.328125 Z M 98.292969 91.328125 "/>
<g clip-path="url(#clip4)" clip-rule="nonzero">
<path style=" stroke:none;fill-rule:nonzero;fill:rgb(100%,100%,100%);fill-opacity:1;" d="M 95.914062 95.046875 C 93.566406 95.050781 91.664062 96.945312 91.664062 99.277344 L 91.664062 100.945312 C 91.664062 101.253906 91.914062 101.503906 92.222656 101.503906 C 92.53125 101.503906 92.78125 101.253906 92.78125 100.945312 L 92.78125 99.277344 C 92.78125 97.554688 94.183594 96.15625 95.914062 96.15625 C 97.648438 96.15625 99.050781 97.554688 99.050781 99.277344 L 99.050781 100.945312 C 99.050781 101.253906 99.300781 101.503906 99.609375 101.503906 C 99.917969 101.503906 100.167969 101.253906 100.167969 100.945312 L 100.167969 99.277344 C 100.164062 96.941406 98.261719 95.046875 95.914062 95.046875 "/>
</g>
<path style=" stroke:none;fill-rule:nonzero;fill:rgb(100%,100%,100%);fill-opacity:1;" d="M 101.632812 91.328125 C 101.632812 93.253906 103.199219 94.8125 105.132812 94.8125 C 107.070312 94.8125 108.636719 93.253906 108.636719 91.328125 C 108.636719 89.402344 107.070312 87.84375 105.132812 87.84375 C 103.203125 87.84375 101.636719 89.402344 101.632812 91.328125 M 107.523438 91.328125 C 107.523438 92.640625 106.457031 93.703125 105.140625 93.703125 C 103.824219 93.703125 102.753906 92.640625 102.753906 91.328125 C 102.753906 90.015625 103.824219 88.953125 105.140625 88.953125 C 106.445312 88.96875 107.5 90.027344 107.503906 91.328125 Z M 107.523438 91.328125 "/>
<g clip-path="url(#clip5)" clip-rule="nonzero">
<path style=" stroke:none;fill-rule:nonzero;fill:rgb(100%,100%,100%);fill-opacity:1;" d="M 105.117188 95.046875 C 102.769531 95.050781 100.871094 96.945312 100.867188 99.277344 L 100.867188 100.945312 C 100.867188 101.253906 101.117188 101.503906 101.425781 101.503906 C 101.734375 101.503906 101.984375 101.253906 101.984375 100.945312 L 101.984375 99.277344 C 101.984375 97.554688 103.386719 96.15625 105.121094 96.15625 C 106.851562 96.15625 108.257812 97.554688 108.257812 99.277344 L 108.257812 100.945312 C 108.257812 101.253906 108.507812 101.503906 108.816406 101.503906 C 109.125 101.503906 109.375 101.253906 109.375 100.945312 L 109.375 99.277344 C 109.371094 96.941406 107.464844 95.046875 105.117188 95.046875 "/>
</g>
<path style=" stroke:none;fill-rule:nonzero;fill:rgb(100%,100%,100%);fill-opacity:1;" d="M 110.820312 91.328125 C 110.820312 93.253906 112.386719 94.8125 114.320312 94.8125 C 116.257812 94.8125 117.824219 93.253906 117.824219 91.328125 C 117.824219 89.402344 116.257812 87.84375 114.320312 87.84375 C 112.390625 87.84375 110.824219 89.402344 110.820312 91.328125 M 116.710938 91.328125 C 116.710938 92.640625 115.644531 93.703125 114.328125 93.703125 C 113.011719 93.703125 111.941406 92.640625 111.941406 91.328125 C 111.941406 90.015625 113.011719 88.953125 114.328125 88.953125 C 115.644531 88.957031 116.710938 90.019531 116.710938 91.328125 "/>
<g clip-path="url(#clip6)" clip-rule="nonzero">
<path style=" stroke:none;fill-rule:nonzero;fill:rgb(100%,100%,100%);fill-opacity:1;" d="M 114.328125 95.046875 C 111.980469 95.050781 110.082031 96.945312 110.078125 99.277344 L 110.078125 100.945312 C 110.078125 101.253906 110.328125 101.503906 110.636719 101.503906 C 110.945312 101.503906 111.195312 101.253906 111.195312 100.945312 L 111.195312 99.277344 C 111.195312 97.554688 112.597656 96.15625 114.332031 96.15625 C 116.0625 96.15625 117.464844 97.554688 117.464844 99.277344 L 117.464844 100.945312 C 117.464844 101.253906 117.714844 101.503906 118.023438 101.503906 C 118.332031 101.503906 118.582031 101.253906 118.582031 100.945312 L 118.582031 99.277344 C 118.582031 96.941406 116.675781 95.046875 114.328125 95.046875 "/>
</g>
<g clip-path="url(#clip7)" clip-rule="nonzero">
<path style=" stroke:none;fill-rule:nonzero;fill:rgb(100%,100%,100%);fill-opacity:1;" d="M 82.445312 84.910156 C 82.457031 83.664062 83.210938 82.542969 84.363281 82.058594 C 85.519531 81.578125 86.851562 81.824219 87.753906 82.6875 C 88.355469 83.273438 88.695312 84.074219 88.695312 84.910156 L 88.695312 86.578125 C 88.695312 86.886719 88.945312 87.136719 89.253906 87.136719 C 89.5625 87.136719 89.8125 86.886719 89.8125 86.578125 L 89.8125 84.910156 C 89.8125 84.183594 89.617188 83.46875 89.253906 82.835938 L 115.449219 82.835938 C 115.757812 82.835938 116.007812 82.589844 116.007812 82.28125 L 116.007812 63.300781 C 116.007812 62.992188 115.757812 62.742188 115.449219 62.742188 L 85.550781 62.742188 C 85.242188 62.742188 84.992188 62.992188 84.992188 63.300781 L 84.992188 73.550781 C 83.1875 73.84375 81.910156 75.464844 82.054688 77.277344 C 82.203125 79.09375 83.722656 80.492188 85.550781 80.492188 C 87.378906 80.492188 88.902344 79.09375 89.046875 77.277344 C 89.195312 75.464844 87.914062 73.84375 86.109375 73.550781 L 86.109375 63.855469 L 114.917969 63.855469 L 114.917969 81.753906 L 88.371094 81.753906 C 87.121094 80.664062 85.347656 80.398438 83.832031 81.078125 C 82.316406 81.757812 81.335938 83.257812 81.328125 84.910156 L 81.328125 86.578125 C 81.328125 86.886719 81.578125 87.136719 81.886719 87.136719 C 82.195312 87.136719 82.445312 86.886719 82.445312 86.578125 Z M 87.964844 76.960938 C 87.964844 78.273438 86.898438 79.335938 85.582031 79.335938 C 84.261719 79.335938 83.195312 78.273438 83.195312 76.960938 C 83.195312 75.648438 84.261719 74.585938 85.582031 74.585938 C 86.21875 74.589844 86.828125 74.84375 87.273438 75.292969 C 87.722656 75.746094 87.972656 76.355469 87.964844 76.988281 Z M 87.964844 76.960938 "/>
</g>
</g>
</svg>
